<svg width="28" height="34" viewBox="0 0 28 34" fill="none" xmlns="http://www.w3.org/2000/svg">
<path d="M24.6875 3.9375H21.125V2.75C21.125 2.12011 20.8748 1.51602 20.4294 1.07062C19.984 0.625222 19.3799 0.375 18.75 0.375H9.25C8.62011 0.375 8.01602 0.625222 7.57062 1.07062C7.12522 1.51602 6.875 2.12011 6.875 2.75V3.9375H3.3125C2.68261 3.9375 2.07852 4.18772 1.63312 4.63312C1.18772 5.07852 0.9375 5.68261 0.9375 6.3125V31.25C0.9375 31.8799 1.18772 32.484 1.63312 32.9294C2.07852 33.3748 2.68261 33.625 3.3125 33.625H24.6875C25.3174 33.625 25.9215 33.3748 26.3669 32.9294C26.8123 32.484 27.0625 31.8799 27.0625 31.25V6.3125C27.0625 5.68261 26.8123 5.07852 26.3669 4.63312C25.9215 4.18772 25.3174 3.9375 24.6875 3.9375ZM9.25 2.75H18.75V7.5H9.25V2.75ZM24.6875 31.25H3.3125V6.3125H6.875V9.875H21.125V6.3125H24.6875V31.25Z" fill="#9AAABA"/>
</svg>
