<svg width="34" height="34" viewBox="0 0 34 34" fill="none" xmlns="http://www.w3.org/2000/svg">
<path d="M30.0625 24.2912V19.375C30.0625 18.7451 29.8123 18.141 29.3669 17.6956C28.9215 17.2502 28.3174 17 27.6875 17H18.1875V12.25H28.875C29.5049 12.25 30.109 11.9998 30.5544 11.5544C30.9998 11.109 31.25 10.5049 31.25 9.875V2.75C31.25 2.12011 30.9998 1.51602 30.5544 1.07062C30.109 0.625222 29.5049 0.375 28.875 0.375H5.12501C4.49512 0.375 3.89103 0.625222 3.44563 1.07062C3.00023 1.51602 2.75001 2.12011 2.75001 2.75V9.875C2.75001 10.5049 3.00023 11.109 3.44563 11.5544C3.89103 11.9998 4.49512 12.25 5.12501 12.25H15.8125V17H6.31251C5.68262 17 5.07853 17.2502 4.63313 17.6956C4.18773 18.141 3.93751 18.7451 3.93751 19.375V24.2912C2.8181 24.5803 1.84254 25.2676 1.19367 26.2245C0.544807 27.1814 0.267195 28.342 0.412871 29.4889C0.558546 30.6358 1.11751 31.6902 1.98499 32.4545C2.85246 33.2188 3.96889 33.6404 5.12501 33.6404C6.28113 33.6404 7.39756 33.2188 8.26504 32.4545C9.13251 31.6902 9.69148 30.6358 9.83715 29.4889C9.98283 28.342 9.70522 27.1814 9.05635 26.2245C8.40749 25.2676 7.43192 24.5803 6.31251 24.2912V19.375H15.8125V24.125H12.25V33.625H21.75V24.125H18.1875V19.375H27.6875V24.2912C26.5681 24.5803 25.5925 25.2676 24.9437 26.2245C24.2948 27.1814 24.0172 28.342 24.1629 29.4889C24.3085 30.6358 24.8675 31.6902 25.735 32.4545C26.6025 33.2188 27.7189 33.6404 28.875 33.6404C30.0311 33.6404 31.1476 33.2188 32.015 32.4545C32.8825 31.6902 33.4415 30.6358 33.5872 29.4889C33.7328 28.342 33.4552 27.1814 32.8064 26.2245C32.1575 25.2676 31.1819 24.5803 30.0625 24.2912ZM7.50001 28.875C7.50001 29.3447 7.36072 29.8039 7.09975 30.1945C6.83878 30.585 6.46786 30.8895 6.03388 31.0692C5.59991 31.249 5.12238 31.296 4.66167 31.2044C4.20097 31.1127 3.77778 30.8865 3.44563 30.5544C3.11348 30.2222 2.88729 29.799 2.79565 29.3383C2.70401 28.8776 2.75104 28.4001 2.9308 27.9661C3.11056 27.5322 3.41497 27.1612 3.80553 26.9003C4.1961 26.6393 4.65528 26.5 5.12501 26.5C5.7549 26.5 6.35899 26.7502 6.80439 27.1956C7.24979 27.641 7.50001 28.2451 7.50001 28.875ZM19.375 26.5V31.25H14.625V26.5H19.375ZM5.12501 9.875V2.75H28.875V9.875H5.12501ZM28.875 31.25C28.4053 31.25 27.9461 31.1107 27.5555 30.8497C27.165 30.5888 26.8606 30.2178 26.6808 29.7839C26.501 29.3499 26.454 28.8724 26.5456 28.4117C26.6373 27.951 26.8635 27.5278 27.1956 27.1956C27.5278 26.8635 27.951 26.6373 28.4117 26.5456C28.8724 26.454 29.3499 26.501 29.7839 26.6808C30.2179 26.8605 30.5888 27.165 30.8498 27.5555C31.1107 27.9461 31.25 28.4053 31.25 28.875C31.25 29.5049 30.9998 30.109 30.5544 30.5544C30.109 30.9998 29.5049 31.25 28.875 31.25Z" fill="#9AAABA"/>
</svg>
